DataRate=300.000000
DataType=double
version=3
OpenSimVersion=4.2
endheader
time	ground_force_vx1	ground_force_vy1	ground_force_vz1	ground_force_px1	ground_force_py1	ground_force_pz1	ground_torque_x1	ground_torque_y1	ground_torque_z1	ground_force_vx2	ground_force_vy2	ground_force_vz2	ground_force_px2	ground_force_py2	ground_force_pz2	ground_torque_x2	ground_torque_y2	ground_torque_z2
22.5	-11.17337952546341	632.87159542058	25.84665188693648	2.495341709563497	0	1.177552310999539	0	10.37170165415055	0	-1.332151882260195e-11	2.877541771602385e-10	1.068737055221685e-10	2.05299448577587e-11	0	1.229421445673525e-11	0	9.264050638358191e-11	0
22.50333333333333	-11.70822373170651	630.3813857413827	25.42331845932011	2.492739877386461	0	1.178989665093039	0	10.71171484106856	0	2.911845866385792e-11	6.0720263024854e-11	1.898847222292271e-11	6.263572633664495e-12	0	3.649770401187666e-12	0	4.251378779089145e-11	0
22.50666666666667	-11.30301603962008	628.8285535670361	25.26783860167766	2.491042241944282	0	1.180318079637823	0	10.91850838148821	0	2.855990448747304e-11	-9.88935823623089e-11	-3.940611480000558e-11	-5.604922891104051e-12	0	-3.432423060196286e-12	0	-1.458930553693089e-11	0
22.51	-9.904520806510783	629.0354662246339	25.17283882126222	2.489959145392958	0	1.180838919826239	0	10.85283310803316	0	6.828587239263822e-12	-1.047686066758372e-10	-3.913251928288789e-11	-7.35508889657532e-12	0	-4.410809001294126e-12	0	-3.230661799881475e-11	0
22.51333333333334	-7.839902559338332	631.2424107181643	24.92422840387307	2.488828168776319	0	1.180124698707452	0	10.4637413772814	0	-9.212924178628761e-12	-2.902911673032785e-11	-9.603442193068009e-12	-2.709688711670177e-12	0	-1.589242233075385e-12	0	-1.693871577379672e-11	0
22.51666666666667	-5.47097386867594	634.9840898798768	24.50985024013988	2.487302352392081	0	1.178357319528258	0	9.827346846494549	0	-1.034872168083878e-11	3.080763207492149e-11	1.243792587483965e-11	1.658256342039648e-12	0	1.021294234257066e-12	0	3.50082904967228e-12	0
22.52	-3.14618788521427	639.0894164772793	24.17315871445548	2.485595146872442	0	1.176365496029005	0	9.187762441942144	0	-3.146295971779656e-12	3.771641542724155e-11	1.416442159573829e-11	2.606195959891353e-12	0	1.565135478885421e-12	0	1.113544676984409e-11	0
22.52333333333333	-1.303168341939259	642.122759009859	24.22370881107082	2.484239520948709	0	1.175181563247991	0	8.873939745922785	0	2.833696864842974e-12	1.285777578980631e-11	4.392830083787015e-12	1.124757115002661e-12	0	6.626907682601027e-13	0	6.605707639664206e-12	0
22.52666666666667	-0.3289300451689776	643.2626284369842	24.7197763093755	2.483645406725562	0	1.175315834849886	0	9.051252520484725	0	3.708309961745964e-12	-9.28242174222984e-12	-3.813451943556712e-12	-4.639517616813766e-13	0	-2.882181559669672e-13	0	-6.303740150229076e-13	0
22.53	-0.3096526413777121	642.7707385170692	25.3213100197321	2.483656584737594	0	1.176395666837634	0	9.542898719919307	0	1.362140344140474e-12	-1.342861498160755e-11	-5.07021749561727e-12	-9.132913966956528e-13	0	-5.492591658822956e-13	0	-3.790722077079789e-12	0
22.53333333333333	-1.046986566909262	641.4908280645911	25.51040466038339	2.483415015343067	0	1.177564673293077	0	9.970715857929525	0	-8.393240277699172e-13	-5.4250377127903e-12	-1.893346973693031e-12	-4.529964150554423e-13	0	-2.678136626948048e-13	0	-2.530786952340439e-12	0
22.53666666666667	-2.232928006838371	640.0815175380633	25.02939140371091	2.481891742142648	0	1.178222877307034	0	10.09785716944354	0	-1.314507143964362e-12	2.668321133395556e-12	1.1239321537947e-12	1.183836801266824e-13	0	7.466639861470686e-14	0	2.675756451430918e-15	0
22.54	-3.423848942965805	638.9047086251232	24.14702737650696	2.478806557220905	0	1.178373267252755	0	9.996382551787894	0	-5.655076882514764e-13	4.728483097066588e-12	1.795153865336858e-12	3.164324837396497e-13	0	1.905801473101147e-13	0	1.273182865753688e-12	0
22.54333333333334	-3.965353155625156	638.3511945404088	23.4798419641132	2.474997287036006	0	1.178379156347151	0	9.888643851619983	0	2.360078672918388e-13	2.212467386332212e-12	7.844091637549244e-13	1.782768720941125e-13	0	1.0566930452608e-13	0	9.554914131480437e-13	0
22.54666666666667	-3.284412108972128	638.8583731061858	23.49083376350996	2.471759071161402	0	1.178509852185926	0	9.888468706615996	0	4.615845670386859e-13	-7.115520924843129e-13	-3.119971609515138e-13	-2.499027592316629e-14	0	-1.632888170649444e-14	0	7.855155382721501e-14	0
22.55	-1.350242261731653	640.6591962878161	24.12366053604936	2.469815331543668	0	1.178658932873114	0	9.910128375031103	0	2.273900077568015e-13	-1.645536272704012e-12	-6.287713660620369e-13	-1.083948199255632e-13	0	-6.536222446708661e-14	0	-4.215847215887435e-13	0
22.55333333333333	1.303272572556642	643.7293232605556	24.9167428656732	2.468911552360685	0	1.178400486374364	0	9.78067043264247	0	-6.286364316385578e-14	-8.810784849737728e-13	-3.169971142741331e-13	-6.903505377132362e-14	0	-4.095871436907162e-14	0	-3.577309335383421e-13	0
22.55666666666667	3.996062592765634	647.7792461884061	25.43181270514812	2.468260197259842	0	1.177399906796116	0	9.421516840875048	0	-1.626270021101155e-13	1.610503019111788e-13	7.660835854283844e-14	2.526544582730568e-15	0	2.029370281109848e-15	0	-5.789956626745534e-14	0
22.56	6.183659735343142	651.9823907439539	25.54605412211194	2.467286572787228	0	1.175906363399049	0	8.955309537463279	0	-8.870293737901003e-14	5.630514828573796e-13	2.179697173739207e-13	3.68235140898655e-14	0	2.21792934296349e-14	0	1.380453007399448e-13	0
22.56333333333334	7.457849770042912	654.9474754940196	25.42026575088054	2.466013442982034	0	1.174777366024436	0	8.648985168500701	0	2.028552901863942e-14	3.484927355473309e-13	1.291916257714949e-13	2.688440843765855e-14	0	1.582900063740354e-14	0	1.374196939343304e-13	0
22.56666666666667	7.658120377654064	655.5324839148911	25.301730114205	2.464823573626546	0	1.174822570749688	0	8.709842356401424	0	6.388731017556286e-14	-1.061441043353493e-14	-8.999255598110087e-15	1.926538468881464e-15	0	8.613613922536054e-16	0	3.709371181744992e-14	0
22.57	7.090320031399781	653.8540801829795	25.33791909469348	2.463908498860548	0	1.176056470758233	0	9.102674769715433	0	3.35004285707383e-14	-1.803247400796481e-13	-7.437671294417797e-14	-1.270310224434488e-14	0	-7.514698555456078e-15	0	-4.564081625180087e-14	0
